<?xml version="1.0" standalone="no"?>
<!DOCTYPE svg PUBLIC "-//W3C//DTD SVG 20010904//EN"
 "http://www.w3.org/TR/2001/REC-SVG-20010904/DTD/svg10.dtd">
<svg version="1.0" xmlns="http://www.w3.org/2000/svg"
 width="940.000000pt" height="940.000000pt" viewBox="0 0 940.000000 940.000000"
 preserveAspectRatio="xMidYMid meet">
<metadata>
Created by potrace 1.14, written by Peter Selinger 2001-2017
</metadata>
<g transform="translate(0.000000,940.000000) scale(0.100000,-0.100000)"
fill="#000000" stroke="none">
<path d="M2219 8039 c-79 -138 -153 -268 -165 -288 -11 -20 -32 -56 -46 -81
-14 -25 -96 -169 -183 -320 -87 -151 -166 -288 -175 -305 -9 -16 -43 -75 -75
-130 -32 -55 -72 -125 -88 -155 -16 -30 -33 -59 -37 -65 -4 -5 -19 -30 -32
-55 -36 -64 -217 -377 -239 -414 -10 -17 -23 -40 -28 -51 -6 -11 -120 -211
-254 -445 -220 -383 -247 -425 -272 -428 -24 -3 -25 -5 -9 -16 16 -12 4 -38
-156 -317 -95 -167 -174 -306 -176 -309 -1 -3 247 -5 552 -5 l554 0 204 -165
c112 -91 202 -167 200 -169 -2 -2 -269 -4 -594 -4 -325 0 -589 -4 -588 -8 2
-4 31 -30 66 -57 35 -28 82 -66 105 -86 55 -45 833 -679 907 -739 8 -7 114
-93 235 -192 121 -98 267 -218 325 -264 58 -47 107 -88 110 -91 3 -3 28 -23
55 -45 28 -21 52 -42 55 -45 17 -18 190 -150 920 -703 448 -340 822 -623 830
-630 12 -9 307 -234 435 -330 l23 -17 683 531 c376 293 706 550 734 571 27 22
64 50 80 63 17 13 107 82 200 155 94 73 185 144 204 159 102 79 337 265 736
582 149 118 331 262 405 321 159 126 490 389 540 429 85 68 137 110 333 264
86 69 157 127 157 129 0 1 -273 3 -606 2 -333 -1 -608 2 -610 5 -2 4 13 20 34
35 20 16 44 34 52 41 8 6 42 33 75 60 33 26 67 53 75 60 8 7 51 41 95 75 l81
63 582 0 c347 0 582 4 582 9 0 5 -73 136 -161 290 -89 155 -173 301 -187 326
-13 25 -39 70 -57 100 -18 30 -149 258 -290 505 -142 248 -299 522 -350 610
-50 88 -103 180 -117 205 -14 25 -68 119 -120 210 -53 91 -105 181 -116 200
-10 19 -48 85 -82 145 -35 61 -75 131 -89 156 -14 25 -134 234 -265 463 -198
344 -241 414 -249 399 -9 -16 -154 -268 -415 -723 -52 -91 -106 -185 -120
-210 -46 -82 -58 -103 -206 -359 -80 -140 -146 -257 -146 -261 0 -3 -8 -15
-18 -26 -18 -19 -46 -19 -1426 -19 l-1407 0 -175 305 c-97 168 -188 328 -203
355 -15 28 -89 156 -163 285 -75 129 -144 251 -155 270 -11 19 -61 106 -111
193 -51 88 -92 162 -92 165 0 4 -7 15 -14 24 -12 16 -29 -11 -157 -233z"/>
</g>
</svg>
